<?xml version="1.0" encoding="UTF-8"?> <svg xmlns="http://www.w3.org/2000/svg" fill="none" viewBox="0 0 184 63"><path fill="#273691" fill-rule="evenodd" d="M53.519 45.928a1.926 1.926 0 0 1 0 2.724l-4.897 4.9a1.926 1.926 0 0 1-2.725 0L9.449 17.077a1.926 1.926 0 0 1 0-2.724l4.897-4.9a1.926 1.926 0 0 1 2.725 0L53.52 45.929Z" clip-rule="evenodd"></path><path fill="#273691" fill-rule="evenodd" d="M45.893 9.458a1.926 1.926 0 0 1 2.725 0l4.897 4.9a1.926 1.926 0 0 1 0 2.723L17.067 53.557a1.926 1.926 0 0 1-2.725 0l-4.897-4.9a1.926 1.926 0 0 1 0-2.724L45.893 9.458Z" clip-rule="evenodd"></path><path fill="#00853E" fill-rule="evenodd" d="m.569 25.977 5.526 5.53-5.526 5.552a1.926 1.926 0 0 0 0 2.734l2.149 2.15a1.924 1.924 0 0 0 2.731 0l5.526-5.53 3.517-3.52a1.938 1.938 0 0 0 0-2.734l-3.517-3.514-5.52-5.553a1.923 1.923 0 0 0-2.732 0L.57 23.237a1.938 1.938 0 0 0 0 2.74Z" clip-rule="evenodd"></path><path fill="#FDB515" fill-rule="evenodd" d="m26.603 52.026-5.525 5.53a1.926 1.926 0 0 0 0 2.734l2.143 2.15a1.934 1.934 0 0 0 2.732 0l5.53-5.535 5.549 5.535a1.934 1.934 0 0 0 2.732 0l2.148-2.15a1.926 1.926 0 0 0 0-2.734l-5.525-5.53-3.517-3.52a1.934 1.934 0 0 0-2.732 0l-3.535 3.52Z" clip-rule="evenodd"></path><path fill="#00B5D1" fill-rule="evenodd" d="M31.484 6.103 25.958.568a1.935 1.935 0 0 0-2.737 0l-2.143 2.155a1.926 1.926 0 0 0 0 2.734l5.525 5.53 3.512 3.52a1.934 1.934 0 0 0 2.732 0l3.517-3.52 5.526-5.53a1.927 1.927 0 0 0 0-2.734L39.741.568a1.923 1.923 0 0 0-2.71 0l-5.547 5.535Z" clip-rule="evenodd"></path><path fill="#62BB46" fill-rule="evenodd" d="M60.245 21.092a1.923 1.923 0 0 0-2.731 0l-5.526 5.53-3.517 3.515a1.938 1.938 0 0 0 0 2.734l3.517 3.52 5.526 5.53a1.923 1.923 0 0 0 2.731 0l2.149-2.15a1.938 1.938 0 0 0 0-2.735l-5.531-5.53 5.531-5.535a1.938 1.938 0 0 0 0-2.734l-2.148-2.145Z" clip-rule="evenodd"></path><path fill="#003" fill-rule="evenodd" d="m23.861 31.507 7.62-7.626 7.62 7.626-7.62 7.625-7.62-7.625Z" clip-rule="evenodd"></path><path fill="#273691" fill-rule="evenodd" d="M125.307 24.393a10.83 10.83 0 0 1-10.097 6.238v-.017c-7.136 0-12.566-4.845-12.566-12.02s5.43-12.02 12.566-12.02c5.576 0 8.605 3.144 10.097 6.176l-5.15 2.47a5.569 5.569 0 0 0-4.975-3.368c-3.793 0-6.474 2.925-6.474 6.736 0 3.812 2.681 6.737 6.474 6.737a5.575 5.575 0 0 0 4.975-3.368l5.15 2.436Zm21.02 5.817v-5.227h-11.034v-3.93h10.787v-5.232h-10.787V12.2h11.034V6.973h-17.02V30.21h17.02Zm20.083-5.227v5.227h-15.315V6.973h5.986v18.01h9.329Zm4.454-18.01h5.986V30.21h-5.986V6.973ZM92.271 21.631h-5.873l2.95-8.713 2.923 8.713Zm.859-14.658 8.712 23.237h-6.85L93.87 26.84h-9.155l-1.122 3.369h-6.777l8.735-23.237h7.579Z" clip-rule="evenodd"></path><path fill="#62BB46" fill-rule="evenodd" d="M161.316 52.963a8.765 8.765 0 0 1-7.079 3.459l-.006-.017c-5.48 0-9.806-4.065-9.806-10.016 0-5.95 4.326-10.015 9.806-10.015a8.699 8.699 0 0 1 7.052 3.424l-1.397.899a7.016 7.016 0 0 0-5.655-2.807c-4.521 0-8.061 3.514-8.061 8.505 0 4.99 3.54 8.505 8.061 8.505a7.022 7.022 0 0 0 5.655-2.807l1.43.87Zm19.887 3.105h1.896l-7.921-19.357h-2.059l-7.915 19.357h1.913l1.913-4.76h10.238l1.935 4.76Zm-2.485-6.265h-9.138l4.583-11.324 4.555 11.324ZM137.733 36.71h-1.655v19.357h1.655V36.71Zm-19.842 9.836h5.425c2.586 0 4.297-1.74 4.297-4.177 0-2.437-1.711-4.15-4.297-4.15h-5.425v8.327Zm11.691 9.543-5.599-8.146c2.901-.117 5.369-2.06 5.369-5.574 0-3.515-2.564-5.66-5.89-5.66h-7.22v19.358h1.649v-8.011h4.264l5.424 8.01 2.003.023ZM99.564 46.9v9.19l-1.655-.022V36.71h12.269v1.51H99.564v7.169h10.395v1.51H99.564Zm-11.483 2.903h-9.144l4.583-11.324 4.561 11.324ZM84.536 36.71l7.926 19.357h-1.901l-1.919-4.76H78.387l-1.912 4.76h-1.913l7.91-19.357h2.064Z" clip-rule="evenodd"></path></svg> 