<?xml version="1.0" encoding="UTF-8"?> <svg xmlns="http://www.w3.org/2000/svg" id="Layer_2" data-name="Layer 2" viewBox="0 0 4399.53 853.31"><defs><style> .cls-1 { fill: #3a1a0e; } .cls-1, .cls-2 { stroke-width: 0px; } .cls-2 { fill: #ce0e2d; } </style></defs><g id="Layer_1-2" data-name="Layer 1"><g><g><path class="cls-1" d="M1232.23,227.35c0-1.66-.99-2.58-2.62-2.58h-37.13c-38.3,0-55.34,17.05-55.34,55.13,0,23.28.01,200.96,0,204.03-.07,13.43,1.21,38.88-7.18,50.78-7.8,11.05-23.98,21.05-49.48,15.47-25.46-5.55-45.98-41.94-46.74-42.84-.76-.89-1.83-1.61-3.26-.94-.23.1-.48.22-.75.35-10.55,4.93-61.06,28.83-71.99,33.92-1.46.68-1.41,2.64-.97,3.43,29.42,52.85,74.39,90.79,142.52,90.79,132.06,0,132.42-116.57,132.94-149.06.06-3.85,0-255.54,0-258.48"></path><path class="cls-1" d="M1679.61,625.7l-166.12-401.14c-.76-1.82-2.59-2.9-4.55-2.9h-40.94c-38.3,0-44.52,9.88-59.31,45.75l-148.93,358.35c-.43,1.18.32,2.55,2.2,2.55h55.68c24.67-.79,41.53-9.41,48.51-26.83.03-.01,24.42-62.72,24.42-62.72.29-.71.98-1.17,1.74-1.17h155.13c.78,0,1.47.48,1.76,1.2l34.54,88.67s.26.85,1.25.85h92.97c1.3-.07,2.15-1.41,1.64-2.61M1516.56,459.7h-93.24c-1.33.04-2.28-1.35-1.8-2.59l46.61-119.7c.61-1.6,2.84-1.64,3.5-.09l46.61,119.75c.52,1.23-.36,2.58-1.69,2.62"></path><path class="cls-1" d="M2386.48,625.7l-166.12-401.14c-.78-1.82-2.59-2.88-4.55-2.88,0,0-19.51-.01-40.94-.01-38.3,0-44.52,9.88-59.31,45.75l-148.93,358.35c-.43,1.18.32,2.55,2.2,2.55h55.68c24.67-.79,41.53-9.41,48.51-26.83.03-.01,24.41-62.72,24.41-62.72.3-.71.99-1.17,1.76-1.17h155.13c.78,0,1.47.48,1.76,1.2l34.54,88.67s.26.85,1.25.85h92.97c1.3-.07,2.15-1.41,1.64-2.61M2223.43,459.7h-93.24c-1.33.04-2.28-1.35-1.8-2.59l46.61-119.7c.61-1.6,2.84-1.64,3.5-.09l46.61,119.75c.52,1.23-.36,2.58-1.69,2.62"></path><path class="cls-1" d="M2020.8,224.76h-90.04c-1.51,0-2.85.92-3.39,2.33l-102.39,276.23c-.72,1.8-3.31,1.8-4.01,0,0,0-92.3-248.94-92.36-249.14-6.8-20.1-23.41-29.42-51.54-29.42h-51.9c-2.61,0-4.4,2.64-3.43,5.06,0,0,149.49,372.15,149.51,372.15,7.44,17.97,23.77,26.32,50.46,26.34h39.91c1.92-.01,2.87-.97,3.5-2.41l159.09-396.1c.98-2.42-.81-5.04-3.41-5.04"></path><path class="cls-1" d="M2878.44,427.81v-1.15c0-111.21,83.56-208.58,206.29-208.58s205.14,96.22,205.14,207.43v1.15c0,111.21-83.56,208.58-206.29,208.58s-205.14-96.22-205.14-207.43M3242.61,427.81v-1.15c0-91.61-66.84-166.52-159.03-166.52s-157.88,73.75-157.88,165.37v1.15c0,91.61,66.83,166.52,159.03,166.52s157.88-73.76,157.88-165.37"></path><path class="cls-1" d="M3683.86,226.46c-.09-.94-.84-1.69-1.77-1.69h-41.86c-.95,0-1.7.75-1.79,1.69l-.04,233.04c0,88.17-47.25,133.11-121.58,133.11s-123.31-48.98-123.31-135.99v-230.01c0-1.01-.84-1.83-1.83-1.83h-16.01c-19.15,0-27.68,8.52-27.68,27.56v207.16c0,114.09,67.98,175.17,167.68,175.17s168.2-61.08,168.2-178.61v-229.59Z"></path><path class="cls-1" d="M2809.89,226.58c-.02-.99-.84-1.82-1.83-1.82h-16.02c-19.03,0-27.55,8.44-27.65,27.26v152.16h-232.8v-177.6c0-.99-.84-1.82-1.83-1.82h-16.02c-18.98,0-27.51,8.63-27.64,27.35l-.03-.22v374.59c0,.95.76,1.73,1.67,1.83h16.18c19.06,0,27.58-8.44,27.65-27.33h.01v-154.16h232.79v179.66c0,1.01.84,1.83,1.83,1.83h41.9c.95-.03,1.73-.81,1.77-1.77h.02V226.6h0Z"></path><path class="cls-1" d="M3908.61,404.76c-88.74-19.02-109.48-40.33-109.48-78.36v-1.17c0-36.3,33.41-65.11,85.85-65.11,40.26,0,76.71,12.49,113.05,41.12.49.39.98.78,1.47,1.17,1.02.79,2.42.81,3.05-.04.43-.58,28.2-35.6-8.92-57.06-30.75-17.77-64.87-26.09-107.5-26.09-76.63,0-132.52,46.69-132.52,110.06v1.15c0,66.27,42.64,96.24,135.4,116.39,84.71,17.87,104.87,39.19,104.87,76.64v1.15c0,39.75-35.72,68.57-89.88,68.57s-94.87-18.39-136.16-55.14l-.78-.65c-.76-.65-1.95-.55-2.58.2,0,0-25.94,30.7-25.85,30.6-.65.76-.55,1.93.22,2.58l.78.66h0c47.81,41.92,99.64,62.65,162.65,62.65,80.1,0,137.7-44.94,137.7-114.09v-1.15c0-61.66-41.47-94.49-131.36-114.09"></path><path class="cls-1" d="M4397.69,224.76h-290.77c-.99,0-1.83.82-1.83,1.82v399.92c0,.99.84,1.82,1.83,1.82h290.77c1.01,0,1.83-.82,1.83-1.82v-37.84c0-.98-.82-1.82-1.83-1.82h-247.08v-141.18h192.44c18.98,0,27.52-8.4,27.67-27.1v-14.38h-220.11v-137.95h221.42c18.76-.07,27.28-8.4,27.51-26.84l-.02-12.81c0-.99-.82-1.82-1.83-1.82"></path></g><g><path class="cls-2" d="M461.78,562.84c4.68,0,90.4,33.66,90.43,35.68,0,2.1-41.81,76.89-126.88,76.89-93.33,0-126.37-75.29-126.38-76.89,0-1.57,84.22-35.68,90.43-35.68,7.54,0,27.75,7.09,36.22,7.09s28.04-7.09,36.18-7.09M425.6,622.01c63.28,0,86.96-11.56,104.19-17.16,0,0-70.65-22.77-80.04-22.77-5.66,0-24.15,7.58-24.15,7.58,0,0-20.49-7.58-24.19-7.58-9.76,0-83.28,22.26-83.28,22.26,37.81,12.31,66.24,17.67,107.48,17.67M426.05,659.96c40.14,0,76.65-17.1,93.35-37.95-16.43,5.16-68.31,12.9-93.8,12.9s-76.28-7.74-92.66-12.9c16.87,24.93,48.73,37.95,93.11,37.95"></path><path class="cls-2" d="M853.04,435.39c-4.67-38.64-38.54-54.26-71.92-50.4-32.26,3.75-48.67-2.85-57.53-10.35-3.23-2.72-5.45-5.58-7.07-8.1,67.87,11.79,62.79-77.64,106.01-91.96.81-.27,1.64-.53,2.49-.75h.17c-18.7-36.12-56.97-38.04-86.97-21.32-36.79,20.48-55.62,14.73-65.32,8.66-.23-.4-.49-.78-.75-1.15,67.49-15.79,26.25-98.73,64.12-126.97.01-.04.06-.06.1-.1-.92-.76-1.84-1.53-2.78-2.23-30.46-23.21-65.06-10.29-85.73,15.81-23.57,29.78-41.84,34.25-53.47,33.43-1.08-.76-2.15-1.51-3.23-2.25,52.59-39.65-12.16-98.25,7.85-138.43.39-.79.85-1.6,1.3-2.36.03-.03.06-.07.09-.13-38.72-12.29-67.16,13.39-76.55,46.41-9.75,34.19-23.62,46.09-34.44,50.53-1.8-.37-3.59-.78-5.39-1.14,31.71-56.05-49.52-85.3-46.32-129.84.06-.85.14-1.71.27-2.61,0-.03.03-.1.03-.14-40.52,3.43-56.93,38.08-52.98,72.19,4.09,35.16-4.14,51.53-12.41,59.78-1.83.35-3.67.68-5.48,1.04,7.85-63.89-78.43-59.84-92.52-102.22-.27-.81-.52-1.66-.73-2.52,0,0,0-.07-.04-.13-36.09,18.69-38,56.97-21.28,86.96,18.37,33.05,15.62,51.6,10.45,62.06-1.12.76-2.22,1.53-3.33,2.31-16.8-65.1-98.61-24.9-126.58-62.36-.04-.04-.07-.1-.1-.14-.62.74-1.24,1.48-1.82,2.25-23.79,30.55-10.85,65.45,15.4,86.25,33.02,26.18,34.91,45.79,32.98,57.09-.26.37-.49.75-.73,1.11l-.65.1.65-.1c-39.64-55.3-98.95,10.84-139.48-9.37-.82-.4-1.61-.82-2.38-1.28-.07-.04-.09-.04-.13-.1-12.32,38.75,13.4,67.16,46.43,76.55,27.98,7.98,41.04,18.76,47.3,28.3h.03-.03c3.24,5.04,4.65,9.74,5.33,13.5-58.18-36.86-87.75,47.65-133.12,44.36-.86-.06-1.74-.14-2.59-.27-.04,0-.12-.04-.17-.04,3.46,40.53,38.1,56.94,72.2,53,28.73-3.31,44.9,1.53,54.36,7.94,5.03,3.42,8.14,7.25,10.26,10.49-67.9-11.79-62.81,77.61-105.99,91.97h-.01c-.82.29-1.66.5-2.51.74-.03,0-.1,0-.17.03,18.7,36.11,56.99,38.01,86.99,21.3,37.25-20.73,56.09-14.57,65.66-8.4.2.29.37.58.56.85-66.67,15.45-27.67,96.18-62.52,125.65h-.01c-.55.49-1.11.95-1.72,1.37-.01.03-.07.07-.12.1,31.05,26.21,67.16,13.33,88.49-13.57,23.95-30.19,42.35-34.37,54-33.39.99.68,1.93,1.38,2.94,2.06-.48.36-1.01.76-1.47,1.14-50.33,39.6,13.23,97.56-6.64,137.4-.39.81-.84,1.6-1.28,2.36-.03.06-.06.1-.09.13,38.77,12.33,67.19-13.39,76.55-46.41,9.91-34.73,24.11-46.48,34.96-50.71,1.69.36,3.39.71,5.07,1.04-32.23,56.28,49.35,85.52,46.12,130.16-.04.85-.16,1.72-.27,2.59,0,.07-.03.09-.03.17,40.52-3.44,56.94-38.07,53-72.2-4.13-35.82,4.39-52.09,12.84-60.19,1.69-.33,3.37-.66,5.1-.99-8.27,64.29,78.36,60.13,92.45,102.59.27.81.53,1.63.75,2.48,0,.06,0,.09.03.16,36.09-18.69,38-56.97,21.3-86.96-18.66-33.56-15.55-52.19-10.22-62.56,1.02-.68,2.02-1.38,3.03-2.08h0c16.12,63.43,93.56,27.52,123.86,59.35.98,1.02,1.95,2.13,2.8,3.3.04.04.06.07.09.12,26.21-31.05,13.33-67.16-13.56-88.5-33.52-26.54-34.98-46.34-32.9-57.55.19-.27.32-.52.52-.81h0c39.6,55.58,98.98-10.68,139.59,9.5h0s0,0,0,0c.81.43,1.6.85,2.38,1.31.04.04.07.07.13.1,12.32-38.75-13.4-67.16-46.41-76.55-30.63-8.75-43.4-20.81-48.89-30.99-2.15-3.99-3.18-7.71-3.79-10.82,59.32,37.58,88.87-50.89,135.75-44.06.07,0,.09.01.14.01-.06-.84-.14-1.73-.27-2.56M776.18,258.61c26.2-8.99,38.93,9.06,45.69,14.06h0c-55.96-19.02-43.36,84.9-105.6,91.84-.22.03-.46.07-.66.09-6.57-31.73-18.08-61.6-33.69-88.76,35.59,35.24,70.23-8.96,94.26-17.23M685.27,137.65c20.01-17.64,38.08-7.32,46.64-4.73l.09-.1-.09.1c.32.09.62.2.94.26-58.8,3.82-7.84,94.49-61.94,124.98-16.97-25.33-37.68-47.87-61.31-66.8,42.62,13.36,57.32-37.48,75.68-53.72M554.99,60.7c12.16-24.87,33.93-21.12,42.25-22.38-52.38,25.81,27.46,89.18-8.34,137.85-24.32-16.24-51.12-28.95-79.69-37.36,40.58-6.41,35.37-56.73,45.79-78.11M405.22,39.47c1.67-27.64,23.23-32.52,30.43-36.83-38.27,43.57,58.17,71.48,45.27,129.38-17.58-3.33-35.73-5.07-54.26-5.07-11.3,0-22.44.68-33.43,1.9,34.38-21.54,10.49-65.72,11.99-89.38M426.63,149.02c34.84,0,68.2,6.28,99.02,17.77l-.22.03c13.31,5.84,6.21,21.18,6.21,21.18-22.69,50.37-88.73,121.96-90.76,124.35-2.92,3.36-1.51,8.86-1.51,8.86,2.65,19.71,39.68,175.13,27.54,187.26h-81.93c-12.15-12.13,24.93-167.55,27.56-187.26,0,0,1.41-5.5-1.5-8.86-2.02-2.39-68.08-73.98-90.78-124.35,0,0-6.14-13.29,3.73-19.83,31.81-12.36,66.44-19.15,102.63-19.15M258.64,77.16c-8.99-26.2,9.06-38.92,14.06-45.69-18.66,54.88,81.09,43.75,91.34,102.17l.17-.04-.17.04v.04c-29.78,6.54-57.87,17.64-83.54,32.48,26.34-33.73-13.99-66.17-21.86-89M137.72,168.04c-18.34-20.76-6.56-39.41-4.52-47.58,3.82,58.27,92.88,8.73,124.15,60.47h.01s.03.07.07.1c-25.69,18.26-48.36,40.5-67.15,65.94,17.05-45.13-35.94-60.11-52.56-78.93M135,473.3c-17.91-53.05-69.29-23.57-95.5-25.17-27.64-1.73-32.51-23.27-36.86-30.49h.01c44.42,38.99,72.52-61.87,132.69-44.44.2.09.46.16.68.22-3.01,17.22-4.61,34.96-4.61,53.07,0,15.92,1.24,31.55,3.59,46.81M60.72,298.31c-24.86-12.15-21.12-33.92-22.36-42.25,25.75,52.22,88.74-26.94,137.36,8.05.63.46,1.28.92,1.89,1.41-17.39,27.65-30.42,58.41-38.15,91.25,2.77-54.45-55.32-47.04-78.73-58.47M77.15,594.67c-26.17,8.99-38.88-9.05-45.63-14.05,55.93,19.01,43.27-84.95,105.54-91.86.24-.03.49-.06.72-.1,6.67,31.94,18.31,61.96,34.09,89.25-35.73-36.08-70.56,8.47-94.72,16.76M168.05,715.6c-20.75,18.36-39.41,6.54-47.56,4.51,58.83-3.83,7.79-94.57,62-125.03.03-.01.06-.01.09-.06,17.1,25.46,37.98,48.1,61.83,67.1-43.13-14.09-57.89,37.16-76.35,53.47M298.32,792.58c-12.15,24.87-33.9,21.14-42.22,22.36h0c52.45-25.85-27.69-89.34,8.53-138.04h-.03.01c24.44,16.3,51.44,29.03,80.22,37.45-41.34,5.95-35.96,56.7-46.51,78.23M448.12,813.86c-1.69,27.62-23.24,32.48-30.45,36.8,38.36-43.69-58.54-71.58-45.22-129.69,17.59,3.33,35.71,5.04,54.21,5.04,11.54,0,22.9-.68,34.11-1.99-35.36,21.4-11.17,66.02-12.65,89.84M594.68,776.16c9.01,26.18-9.05,38.93-14.05,45.68,18.67-55.04-81.53-43.73-91.41-102.59,29.94-6.53,58.26-17.69,84.06-32.71-27.29,33.93,13.49,66.63,21.4,89.62M715.65,685.24c18.33,20.75,6.5,39.45,4.48,47.58-3.82-58.34-93.11-8.6-124.26-60.7h-.01s.01-.01.01-.01h-.01l-.04-.1c25.85-18.34,48.64-40.76,67.51-66.34-17.9,45.63,35.62,60.69,52.33,79.58M426.63,711.77c-155.99,0-282.44-125.96-282.44-281.39,0-25.32,3.34-49.83,9.67-73.17,32.43,29.58,74.02,52.98,123.89,52.98s91.55-39.11,93.63-42.25c4.18-6.2,3.93-9.54-3.5-15.71-8.4-6.93-41.9-42.12-90.13-42.12s-85.56,32.45-88.25,35.14c-2.68,2.67-8,3.36-12.82-1.54-2.81-2.75-8.08-9.81-13.04-16.21,23.43-59.31,66.44-108.76,121.14-140.47l116.05,133.07c-1.47,18.63-48.79,184.23-35.27,197.76,4.74,4.73,60.42,15.49,60.42,15.49,0,0,55.69-10.76,60.37-15.49,13.56-13.53-33.76-179.13-35.27-197.76l116.57-133.63c54.74,31.5,97.91,80.73,121.55,139.85-5.17,6.69-10.96,14.47-13.93,17.39-4.83,4.9-10.16,4.21-12.82,1.54-2.68-2.69-40.01-35.14-88.27-35.14s-81.71,35.19-90.11,42.12c-7.44,6.17-7.69,9.51-3.5,15.71,2.07,3.14,44.25,42.25,93.61,42.25s92.43-23.9,125.01-53.99c6.48,23.63,9.96,48.49,9.96,74.18,0,155.43-126.47,281.39-282.49,281.39M313.57,354.94c15.96,2.95,27.9,7,35.26,9.99-6.24,8.69-21.92,21.14-40.46,28.03,5.49-6.17,8.8-14.14,8.8-22.84,0-5.43-1.33-10.55-3.6-15.17M274.27,333.83c-19.97,0-43.49,4.73-60.11,15.62,12.71-12.05,33.53-25.62,62.61-25.62,35.69,0,58.73,18.01,69.26,27.87-21.64-9.67-48.95-17.87-71.76-17.87M306.92,370.74c0,14.44-10.78,26.14-24.11,26.14s-24.11-11.7-24.11-26.14c0-7.82,3.17-14.83,8.23-19.57,1.15-.04,2.32-.07,3.49-.07,10.92,0,20.94.71,29.97,1.82,4.03,4.65,6.53,10.92,6.53,17.82M249,352.74c-3.03,5.12-4.78,11.04-4.78,17.36,0,9.29,3.77,17.74,9.94,24.03-26.05-6.5-48.31-19.77-55-26.34,8.04-4.8,27.81-11.92,49.84-15.06M577.64,333.83c-22.81,0-50.16,8.2-71.76,17.87,9.88-9.24,30.72-25.65,62.74-27.66,2.13-.14,4.31-.2,6.54-.2,29.06,0,49.9,13.57,62.59,25.62-16.61-10.89-40.19-15.62-60.11-15.62M593.19,370.74c0,14.44-10.76,26.14-24.11,26.14s-24.09-11.7-24.09-26.14c0-6.9,2.49-13.17,6.54-17.82,9.02-1.11,19.02-1.82,29.97-1.82,1.15,0,2.31.03,3.49.07,5,4.77,8.2,11.74,8.2,19.57M543.5,392.95c-18.49-6.89-34.18-19.34-40.4-28.03,7.33-2.98,19.24-7.03,35.24-9.99-2.28,4.62-3.6,9.74-3.6,15.17,0,8.7,3.31,16.67,8.76,22.84M602.93,352.74c22.03,3.14,41.77,10.26,49.83,15.06-6.69,6.57-28.93,19.84-55,26.34,6.17-6.3,9.94-14.74,9.94-24.03,0-6.33-1.74-12.25-4.77-17.36M792.59,554.97c24.88,12.16,21.14,33.92,22.36,42.23-26.07-52.91-90.5,29.15-139.39-9.57,17.51-27.74,30.62-58.63,38.33-91.6-3.08,54.96,55.24,47.45,78.7,58.93M717.98,480.09h0c-.23-.07-.48-.16-.74-.22,3.07-17.36,4.67-35.17,4.67-53.38,0-15.69-1.21-31.09-3.47-46.14,18.03,52.59,69.25,23.21,95.42,24.83,27.62,1.69,32.49,23.26,36.81,30.46-44.41-38.99-72.49,61.89-132.69,44.45"></path></g></g></g></svg> 