<?xml version="1.0" encoding="utf-8"?>
<!-- Generator: Adobe Illustrator 24.0.3, SVG Export Plug-In . SVG Version: 6.00 Build 0)  -->
<svg version="1.1" id="Layer_1" xmlns="http://www.w3.org/2000/svg" xmlns:xlink="http://www.w3.org/1999/xlink" x="0px" y="0px"
	 viewBox="0 0 227.1 247.4" style="enable-background:new 0 0 227.1 247.4;" xml:space="preserve">
<style type="text/css">
	.st0{fill:none;stroke:#F89920;stroke-width:8;stroke-miterlimit:10;}
	.st1{fill:#F8991D;}
	.st2{enable-background:new    ;}
	.st3{fill:#4F2B12;}
</style>
<title>logo</title>
<path class="st0" d="M204.9,190.8l-79.5,46c-7.5,4.3-16.8,4.3-24.3,0l-79.5-46c-7.5-4.4-12.2-12.4-12.2-21.1v-92
	c0-8.7,4.6-16.7,12.2-21l79.5-46c7.5-4.3,16.8-4.3,24.3,0l79.5,46C212.4,61,217,69.1,217,77.7v92C217,178.4,212.4,186.4,204.9,190.8
	z"/>
<path class="st1" d="M113.2,3.7l9.7,5.5c0,0-8.8,7.2-8.2,24.9s6.8,19.1,9.8,27.9c2.6,7.6,1.5,16.1-3.7,20.7c-2.2,1.9-5,2.9-7.8,2.8
	l0,0c-2.9,0-5.7-1-7.8-2.8c-5.2-4.6-6.3-13.1-3.7-20.7c3-8.8,9.2-10.2,9.8-27.9S103,9.2,103,9.2L113.2,3.7"/>
<g class="st2">
	<path class="st3" d="M78.4,186.4c-1.3,0-2.5-1-2.5-2.9v-6.4h-8.7v9.3h-1.7c-1.5,0-2.6-1-2.6-2.9v-18.8h2.1c1.2,0,2.2,1,2.2,2.3v6.5
		h8.8v-8.7h2c1.1,0,2.3,0.9,2.3,2.3v19.4H78.4z"/>
	<path class="st3" d="M93.5,186.8c-5.5,0-9.9-4.4-9.9-10.9c0-6.8,3.8-11.6,10.4-11.6c5.3,0,9.9,4,9.9,10.9
		C103.9,181.8,100.1,186.8,93.5,186.8z M93.5,168.2c-3.2,0-5.5,2.6-5.5,7.1c0,5.2,1.9,7.8,5.9,7.8c3.4,0,5.5-2.4,5.5-7.2
		C99.4,170.7,97.2,168.2,93.5,168.2z"/>
	<path class="st3" d="M123.2,186.4c-1.7,0-3.5-0.5-6.2-5.7l-4-7.7c-0.6-1.2-1.1-2-1.5-2.5v16h-1.7c-1.3,0-2.6-1-2.6-2.9v-18.9h2.2
		c2.9,0,4.7,1.5,6.1,4.4l3.8,7.6c0.4,0.9,1,2.2,1.3,2.9v-15h1.9c1.1,0,2.4,1.1,2.4,2.5v19.2H123.2z"/>
	<path class="st3" d="M144,183.9c0,1.7-0.9,2.7-4.7,2.7H137c-5.3,0-8.1-2.9-8.1-8.5v-4c0-2.1,0.2-4.4,0.4-6.1
		c0.3-2.6,1.6-3.3,3.3-3.3H144v1.5c0,1.5-0.9,2.3-2.9,2.3h-7.4c-0.2,1.6-0.3,3.7-0.3,5.1h8.4v1.6c0,1.4-0.9,2-2.6,2h-5.7v1.3
		c0,3.8,1.2,4.5,4.6,4.5h1.4c1.6,0,3.2-0.1,4.8-0.5L144,183.9z"/>
	<path class="st3" d="M156,177.2v9.3h-1.8c-1.3,0-2.6-1-2.6-2.9v-6.4c-2.5-3.3-5.3-8.4-6.6-12.5h2c1.7,0,2.6,0.9,2.9,1.5
		c1.1,2.5,2.8,5.6,4.2,7.6c1.4-1.9,3.7-5.8,4.7-9.1h1.9c1.1,0,1.8,0.7,1.8,1.7C162.4,168.1,157.9,174.9,156,177.2z"/>
</g>
<g class="st2">
	<path class="st3" d="M55.4,112.6c0-1.2-2.1-1.2-2.8-1.2c-1.3,0-2.6,0.1-3.9,0.3c-3.6,0.6-9.7,3.6-9.7,7.9
		c0,7.1,16.1,12.7,16.1,21.7c0,8.9-13.9,10.5-20.5,10.5c-1,0-2-0.1-3.1-0.2c-1-0.1-4.3-0.2-4.3-1.7c0-1.3,0.8-1.3,1.8-1.3
		c1.9,0,3.7,0.7,5.6,0.7c4.1,0,16.2-1.3,16.2-7c0-6.5-17.3-11.9-17.3-22.2c0-9.1,13.5-10.8,20.3-10.8c2.1,0,6.2,0.5,6.2,3.3
		c0,1.4-0.7,2.9-1.7,3.9c-1.1,1-3.7,2.6-5.2,2.6c-0.9,0-1.5-0.6-1.5-1.4C51.6,116,55.4,114.4,55.4,112.6z"/>
	<path class="st3" d="M81.3,152.9c-1.3,0-2.5-0.6-3.4-1.6c-2-2-2.7-8.8-2.8-11.5c0,0-8.4,10.8-12,10.8c-2.9,0-3.1-2.9-3.1-5.1
		c0-3.2,2.6-11.6,4.4-14.3c0.6-0.9,1.6-1.2,2.6-1.2c0.8,0,1.8,0.3,1.8,1.3c0,0.4-0.2,0.8-0.4,1.2c-2,3.7-4,9.5-4,13.8
		c0,0.2,0,0.8,0.3,0.8c0.9,0,2.7-1.8,3.3-2.4c2-2,3.9-4.3,5.5-6.6c0.6-1,1.4-2.4,2-3.2c0.5-0.7,1.4-0.7,2.1-0.7
		c1.6,0,1.7,1.4,1.7,2.6c0,2,1,13.1,3.3,13.1c3.1,0,4.1-9.7,4.1-12c0-0.9-0.1-3-0.4-3.7c-0.5-0.9-1-1-1-2.2c0-0.7,0.5-1.6,1.3-1.6
		c2.1,0,2.3,5.4,2.3,6.9C89,141.7,87.8,152.9,81.3,152.9z"/>
	<path class="st3" d="M118.6,143.6c-2.1,3-6.3,8.2-10.4,8.2c-3.8,0-4.3-6.2-4.3-8.9c-1.5,2.4-5,7.6-8.1,7.6c-2.8,0-3.5-3.8-3.5-6
		c0-6,6.3-16.6,13-16.6c0.8,0,1.9,1,1.9,1.8c0,0.3-0.3,0.5-0.6,0.7c-2.1,1.2-4,2.5-5.6,4.3c-3,3.1-4.9,7-4.9,11.3
		c0,0.5,0.1,1.4,0.7,1.4c2.6,0,7.4-10.2,8.5-12.6c0.4-0.9,0.9-1.7,2-1.7c0.6,0,1.3,0.2,1.3,0.9c0,0.8-0.7,2.5-1,3.3
		c-0.6,2-0.9,4.4-0.9,6.4c0,1.2,0.1,5.6,1.8,5.6c2.7,0,7-5.7,8.6-7.8c0,0,0.8-1.4,1.6-1.4c0.7,0,0.9,0.5,0.9,1.1
		C119.9,142,119,143.1,118.6,143.6z"/>
	<path class="st3" d="M122.6,149.6l-0.1,0.2c-0.6,1.3-1.6,3.2-3.2,3.2c-1.7,0-2-2.2-2-3.5c0-2,0.4-4,0.6-5.9
		c0.8-6.4,3.6-44.1,12.2-44.1c2.5,0,3.1,3.5,3.1,5.4c0,8.6-2.9,16.8-6.7,24.4c-0.9,1.8-2,3.6-2.9,5.4c-0.5,0.9-1.5,7.9-1.7,9.4
		c2.1-4.6,9-17.2,14.5-17.2c2.6,0,3.3,3.1,3.3,5.2l-1.1,14.5c0,1.1,0.1,2.6,1.6,2.6c3.6,0,7.3-5.6,9.3-8.6c0.3-0.5,0.7-1.3,1.4-1.3
		c0.7,0,0.9,0.6,0.9,1.2c0,0.3-0.2,0.6-0.3,0.9c-2.2,4.4-8,11.2-13.4,11.2c-3.1,0-3.1-5.4-3.1-7.9c0-4.1,0.5-8.3,0.9-12.9
		c0-0.3,0-1.4-0.6-1.4C132.6,130.4,124,146.6,122.6,149.6z M123.3,129.6c3.5-6.3,7.8-17.3,7.8-24.5c0-0.5,0-2.7-0.7-2.7
		C126.8,102.5,123.5,125.7,123.3,129.6z"/>
	<path class="st3" d="M155.7,149c3.1,0,7.6-6.6,9.3-9.3c0.3-0.5,0.8-1.2,1.4-1.2c0.7,0,0.7,0.7,0.7,1.3c0,0.7-1.1,2.3-1.6,2.9
		c-2.2,3.1-7.1,9.2-11.2,9.2c-4.6,0-5.2-6.5-5.2-9.9c0-2.1,0.6-5.1,1.2-7.1c0.7-2.1,1.7-3.7,4.1-3.7c0.9,0,1.3,0.3,1.3,1.3
		c0,1.6-1.3,4.4-1.7,6.1c-0.3,1.7-0.5,3.4-0.5,5.1C153.7,145.1,153.7,149,155.7,149z M158,124.6c0,1.5-1.2,3.1-2.8,3.1
		c-1.2,0-2-1-2-2.2c0-1.4,1.2-3.1,2.7-3.1C157.2,122.4,158,123.5,158,124.6z"/>
	<path class="st3" d="M164,134.7c0-8,1.2-16.1,4.4-23.4c1.2-2.8,4.5-8.5,7.9-8.5c2.7,0,3.5,3,3.5,5.2c0,7.2-3.7,17.5-7.2,23.7
		c-0.8,1.6-1.8,2.9-2.8,4.4c-0.3,0.5-0.8,1.2-1,1.7c-0.2,0.6-0.2,1.8-0.2,2.5c0,2.2,0.5,9.1,3.6,9.1c2.8,0,6.7-4.8,8.2-7l1.5-2.4
		c0.3-0.5,0.6-0.8,1.2-0.8c0.6,0,0.8,0.5,0.8,1c0,0.7-0.4,1.4-0.8,2l-0.1,0.1c-2.2,3.7-7.3,10.5-12,10.5
		C164.7,152.9,164,139.1,164,134.7z M171.8,113.4c-1.7,5.5-3.3,11.9-3.3,17.4c0,0.6,0,1.1,0.1,1.7c3.7-6.3,8.9-17.5,8.9-24.8
		c0-0.5,0-2.1-0.9-2.1C174.1,105.5,172.4,111.3,171.8,113.4z"/>
	<path class="st3" d="M188.1,149c3.1,0,7.6-6.6,9.3-9.3c0.3-0.5,0.8-1.2,1.4-1.2c0.7,0,0.7,0.7,0.7,1.3c0,0.7-1.1,2.3-1.6,2.9
		c-2.2,3.1-7.1,9.2-11.2,9.2c-4.6,0-5.2-6.5-5.2-9.9c0-2.1,0.6-5.1,1.2-7.1c0.7-2.1,1.7-3.7,4.1-3.7c0.9,0,1.3,0.3,1.3,1.3
		c0,1.6-1.3,4.4-1.7,6.1c-0.3,1.7-0.5,3.4-0.5,5.1C186,145.1,186.1,149,188.1,149z M190.4,124.6c0,1.5-1.2,3.1-2.8,3.1
		c-1.2,0-2-1-2-2.2c0-1.4,1.2-3.1,2.7-3.1C189.6,122.4,190.4,123.5,190.4,124.6z"/>
</g>
</svg>
